<svg width="178" height="40" viewBox="0 0 178 40" fill="none" xmlns="http://www.w3.org/2000/svg">
<rect width="40" height="40" rx="20" fill="#FF0000"/>
<path d="M19.7913 7.5C23.1585 7.5 26.2145 8.83132 28.4622 10.9961L25.5462 13.9121L32.2757 20.6406L32.7083 21.0732L29.6683 24.1133L27.721 22.1494L22.3763 16.7578L25.4241 14.0215C23.9537 12.6355 21.9715 11.7861 19.7913 11.7861C15.2553 11.7863 11.5784 15.464 11.5784 20C11.5787 24.5358 15.2555 28.2127 19.7913 28.2129C21.5775 28.2129 23.2307 27.6421 24.5784 26.6738L19.7913 21.8369L22.8001 18.8281L27.3011 23.3301L30.471 26.5C29.714 27.741 28.7465 28.8402 27.6185 29.7471C25.4765 31.4693 22.7546 32.4999 19.7923 32.5C12.8886 32.5 7.29132 26.9028 7.29132 19.999C7.29149 13.0956 12.8879 7.50021 19.7913 7.5Z" fill="white"/>
<path d="M63.6093 32.0724C62.0217 32.0724 60.5223 31.7637 59.1111 31.1463C57.6999 30.5289 56.4651 29.6799 55.4067 28.5995C54.3483 27.497 53.5104 26.2291 52.893 24.7959C52.2977 23.3406 52 21.786 52 20.1323C52 18.4785 52.2977 16.935 52.893 15.5018C53.5104 14.0685 54.3483 12.8117 55.4067 11.7312C56.4872 10.6287 57.744 9.77981 59.1773 9.18446C60.6326 8.56706 62.1981 8.25836 63.8739 8.25836C65.7041 8.25836 67.4019 8.61116 68.9675 9.31676C70.533 10.0224 71.845 11.0256 72.9034 12.3266L70.3236 14.9064C69.64 13.9362 68.7249 13.1976 67.5783 12.6904C66.4317 12.1612 65.1969 11.8966 63.8739 11.8966C62.2863 11.8966 60.8862 12.2494 59.6734 12.955C58.4827 13.6386 57.5566 14.5977 56.8951 15.8325C56.2336 17.0673 55.9029 18.5006 55.9029 20.1323C55.9029 21.764 56.2336 23.2083 56.8951 24.4651C57.5787 25.6999 58.4937 26.6701 59.6403 27.3757C60.7869 28.0813 62.0879 28.4341 63.5432 28.4341C65.0867 28.4341 66.4097 28.1585 67.5122 27.6072C68.6367 27.0339 69.4967 26.196 70.092 25.0935C70.6874 23.969 70.9851 22.5909 70.9851 20.9592L73.3665 22.6791H63.477V19.2062H74.921V19.7354C74.921 22.4916 74.4249 24.7848 73.4326 26.615C72.4624 28.4451 71.1284 29.8122 69.4305 30.7163C67.7327 31.6203 65.7923 32.0724 63.6093 32.0724Z" fill="black"/>
<path d="M76.8876 31.7416V15.8656H80.5259V31.7416H76.8876ZM80.5259 22.9106L79.269 22.2822C79.269 20.2756 79.71 18.6549 80.592 17.4201C81.4961 16.1633 82.8522 15.5349 84.6603 15.5349C85.4541 15.5349 86.1707 15.6782 86.8102 15.9648C87.4496 16.2515 88.0449 16.7145 88.5962 17.354L86.2148 19.8015C85.9281 19.4928 85.6084 19.2723 85.2556 19.14C84.9028 19.0077 84.4949 18.9416 84.0318 18.9416C83.0175 18.9416 82.1796 19.2613 81.5181 19.9008C80.8566 20.5402 80.5259 21.5435 80.5259 22.9106Z" fill="black"/>
<path d="M95.8257 32.0724C94.2822 32.0724 92.882 31.7085 91.6251 30.9809C90.3683 30.2312 89.365 29.2279 88.6153 27.9711C87.8877 26.7142 87.5238 25.314 87.5238 23.7705C87.5238 22.227 87.8877 20.8379 88.6153 19.6031C89.365 18.3683 90.3683 17.3871 91.6251 16.6594C92.882 15.9097 94.2822 15.5349 95.8257 15.5349C97.3912 15.5349 98.8024 15.8987 100.059 16.6263C101.316 17.354 102.308 18.3462 103.036 19.6031C103.786 20.8379 104.161 22.227 104.161 23.7705C104.161 25.314 103.786 26.7142 103.036 27.9711C102.308 29.2279 101.316 30.2312 100.059 30.9809C98.8024 31.7085 97.3912 32.0724 95.8257 32.0724ZM95.8257 28.5664C96.7297 28.5664 97.5235 28.368 98.2071 27.9711C98.9127 27.5521 99.4529 26.9788 99.8277 26.2512C100.225 25.5235 100.423 24.6966 100.423 23.7705C100.423 22.8444 100.225 22.0286 99.8277 21.323C99.4308 20.6174 98.8906 20.0661 98.2071 19.6692C97.5235 19.2503 96.7297 19.0408 95.8257 19.0408C94.9437 19.0408 94.1499 19.2503 93.4443 19.6692C92.7607 20.0661 92.2205 20.6174 91.8236 21.323C91.4487 22.0286 91.2613 22.8444 91.2613 23.7705C91.2613 24.6966 91.4487 25.5235 91.8236 26.2512C92.2205 26.9788 92.7607 27.5521 93.4443 27.9711C94.1499 28.368 94.9437 28.5664 95.8257 28.5664Z" fill="black"/>
<path d="M105.863 31.7416V15.8656H109.501V31.7416H105.863ZM116.414 31.7416V22.2822C116.414 21.2238 116.083 20.4079 115.422 19.8346C114.76 19.2393 113.944 18.9416 112.974 18.9416C112.313 18.9416 111.717 19.0739 111.188 19.3385C110.681 19.6031 110.273 19.989 109.964 20.4961C109.656 20.9812 109.501 21.5766 109.501 22.2822L108.079 21.4884C108.079 20.2756 108.344 19.2282 108.873 18.3462C109.402 17.4642 110.119 16.7807 111.023 16.2956C111.927 15.7884 112.941 15.5349 114.066 15.5349C115.19 15.5349 116.205 15.7774 117.109 16.2625C118.013 16.7476 118.729 17.4312 119.259 18.3132C119.788 19.1952 120.052 20.2536 120.052 21.4884V31.7416H116.414ZM126.965 31.7416V22.2822C126.965 21.2238 126.634 20.4079 125.973 19.8346C125.311 19.2393 124.495 18.9416 123.525 18.9416C122.886 18.9416 122.301 19.0739 121.772 19.3385C121.243 19.6031 120.824 19.989 120.515 20.4961C120.207 20.9812 120.052 21.5766 120.052 22.2822L118.002 21.4884C118.112 20.2756 118.465 19.2282 119.06 18.3462C119.655 17.4642 120.416 16.7807 121.342 16.2956C122.29 15.7884 123.327 15.5349 124.451 15.5349C125.598 15.5349 126.634 15.7774 127.56 16.2625C128.486 16.7476 129.225 17.4312 129.776 18.3132C130.328 19.1952 130.603 20.2536 130.603 21.4884V31.7416H126.965Z" fill="black"/>
<path d="M139.677 32.0724C138.243 32.0724 136.942 31.7085 135.774 30.9809C134.627 30.2532 133.712 29.272 133.029 28.0372C132.367 26.7804 132.036 25.3802 132.036 23.8367C132.036 22.2711 132.367 20.871 133.029 19.6362C133.712 18.3793 134.627 17.3871 135.774 16.6594C136.942 15.9097 138.243 15.5349 139.677 15.5349C140.889 15.5349 141.959 15.7995 142.885 16.3287C143.833 16.8358 144.583 17.5414 145.134 18.4455C145.685 19.3495 145.961 20.3748 145.961 21.5214V26.0858C145.961 27.2324 145.685 28.2577 145.134 29.1618C144.605 30.0658 143.866 30.7824 142.918 31.3116C141.97 31.8188 140.889 32.0724 139.677 32.0724ZM140.272 28.6326C141.617 28.6326 142.698 28.1805 143.513 27.2765C144.351 26.3724 144.77 25.2148 144.77 23.8036C144.77 22.8555 144.583 22.0176 144.208 21.2899C143.833 20.5623 143.304 20 142.62 19.6031C141.959 19.1841 141.176 18.9747 140.272 18.9747C139.39 18.9747 138.607 19.1841 137.924 19.6031C137.262 20 136.733 20.5623 136.336 21.2899C135.961 22.0176 135.774 22.8555 135.774 23.8036C135.774 24.7518 135.961 25.5897 136.336 26.3173C136.733 27.045 137.262 27.6183 137.924 28.0372C138.607 28.4341 139.39 28.6326 140.272 28.6326ZM144.539 31.7416V27.4749L145.167 23.6052L144.539 19.7685V15.8656H148.177V31.7416H144.539Z" fill="black"/>
<path d="M150.892 31.7416V15.8656H154.53V31.7416H150.892ZM154.53 22.9106L153.273 22.2822C153.273 20.2756 153.714 18.6549 154.596 17.4201C155.5 16.1633 156.856 15.5349 158.664 15.5349C159.458 15.5349 160.175 15.6782 160.814 15.9648C161.454 16.2515 162.049 16.7145 162.6 17.354L160.219 19.8015C159.932 19.4928 159.612 19.2723 159.26 19.14C158.907 19.0077 158.499 18.9416 158.036 18.9416C157.022 18.9416 156.184 19.2613 155.522 19.9008C154.861 20.5402 154.53 21.5435 154.53 22.9106Z" fill="black"/>
<path d="M173.126 31.7416L166.411 23.6382L173.092 15.8656H177.425L169.752 24.5974L169.917 22.5137L177.756 31.7416H173.126ZM163.038 31.7416V7.92761H166.676V31.7416H163.038Z" fill="black"/>
</svg>
